# xmcd
#
# Track frame offsets: 
#        150
#        16125
#        43650
#
# Disc length: 816 seconds
#
# Revision: 0
# Processed by: cddbd v1.4PL0 Copyright (c) Steve Scherf et al.
# Submitted via: ExactAudioCopy v0.90b2
#
DISCID=19032e03
DTITLE=Errol Brown - Emmalene (That's No Lie)
DYEAR=1993
DGENRE=Blues
TTITLE0=Emmalene (That's No Lie) (Radio Edit)
TTITLE1=Emmalene (That's No Lie) (Extended Version)
TTITLE2=Rise
EXTD=
EXTT0=
EXTT1=
EXTT2=
PLAYORDER=
